# xmcd CD database file
#
# Track frame offsets:
#	182
#	17567
#	32180
#
# Disc length: 658 seconds
#
# Revision: 1
# Processed by: cddbd v1.5.2PL0 Copyright (c) Steve Scherf et al.
# Submitted via: CDex 1.51
#
DISCID=1a029003
DTITLE=Stiff Little Fingers - Harp
DYEAR=1994
DGENRE=Punk
TTITLE0=Harp
TTITLE1=Shake it off
TTITLE2=Not what we were (Pro Patria Mori)
EXTD=YEAR: 1994
EXTT0=
EXTT1=
EXTT2=
PLAYORDER=
